<?xml version="1.0" encoding="utf-8"?>
<!-- Generator: Adobe Illustrator 22.1.0, SVG Export Plug-In . SVG Version: 6.00 Build 0)  -->
<svg version="1.1" id="Layer_1" xmlns="http://www.w3.org/2000/svg" xmlns:xlink="http://www.w3.org/1999/xlink" x="0px" y="0px"
	 viewBox="0 0 199 192" style="enable-background:new 0 0 199 192;" xml:space="preserve">
<style type="text/css">
	.st0{fill:#ADACAC;}
</style>
<path class="st0" d="M180.9,168.2L113,100.4l68.2-68.2c4.1-4.1,4.1-10.7,0-14.8s-10.7-4.1-14.8,0L98.1,85.5L30.3,17.6
	c-4.1-4.1-10.7-4.1-14.8,0s-4.1,10.7,0,14.8l67.9,67.9l-67.5,67.5c-4.1,4.1-4.1,10.7,0,14.8s10.7,4.1,14.8,0l67.5-67.5l67.9,67.9
	c4.1,4.1,10.7,4.1,14.8,0C185,179,185,172.3,180.9,168.2z"/>
</svg>
