<?xml version="1.0" encoding="utf-8"?>
<!-- Generator: Adobe Illustrator 22.1.0, SVG Export Plug-In . SVG Version: 6.00 Build 0)  -->
<svg version="1.1" id="Layer_1" xmlns="http://www.w3.org/2000/svg" xmlns:xlink="http://www.w3.org/1999/xlink" x="0px" y="0px"
	 viewBox="0 0 82 64" style="enable-background:new 0 0 82 64;" xml:space="preserve">
<style type="text/css">
	.st0{fill:#FBD243;}
</style>
<path class="st0" d="M78.1,10.2l-5.6,0V4.7c0-1.3-1-2.3-2.3-2.5c-0.2,0-5.7-0.8-12.2,0.3C50.8,3.8,44.9,6.9,41,11.6
	c-3.9-4.7-9.8-7.8-17.1-9.1c-6.5-1.1-12-0.4-12.2-0.3c-1.3,0.2-2.3,1.3-2.3,2.5v5.5H3.9c-1.5,0-2.7,1.1-2.7,2.5v47.9
	c0,0.8,0.4,1.6,1.1,2.1C3,63.1,3.9,63.3,4.7,63c0.2-0.1,20.2-6.6,35.2-0.1c0.7,0.3,1.5,0.3,2.2,0c14.9-6.5,35,0,35.2,0.1
	c0.3,0.1,0.6,0.1,0.9,0.1c0.5,0,1.1-0.2,1.5-0.5c0.7-0.5,1.1-1.2,1.1-2.1V12.7C80.8,11.3,79.6,10.2,78.1,10.2z M6.5,57.2V15.2h2.9
	v33.8c0,0.7,0.3,1.4,0.9,1.9c0.6,0.5,1.4,0.7,2.1,0.6c0.1,0,11.8-1.5,20.2,4C22.3,53.9,11.8,55.9,6.5,57.2z M38.3,53.3
	c-3.7-3.2-8.6-5.4-14.4-6.4c-2.8-0.5-5.4-0.6-7.4-0.6c-0.6,0-1.2,0-1.7,0V7l0,0c5.1-0.2,17.6,0.3,23.5,9.8V53.3z M43.7,16.8
	c5.9-9.5,18.4-10,23.5-9.8v39.3c-2.2-0.1-5.5,0-9.1,0.6c-5.8,1-10.7,3.2-14.4,6.4V16.8L43.7,16.8z M49.3,55.6c8.5-5.5,20.1-4,20.2-4
	c0.8,0.1,1.6-0.1,2.1-0.6c0.6-0.5,0.9-1.2,0.9-1.9V15.2h2.9v41.9C70.2,55.9,59.7,53.9,49.3,55.6z"/>
</svg>
